# xmcd
#
# Track frame offsets: 
#        182
#        12822
#        29000
#        45397
#        64387
#        74210
#        86117
#        99367
#        112640
#        128055
#        142790
#        158000
#        171317
#        185890
#        194745
#        223042
#
# Disc length: 3246 seconds
#
# Revision: 6
# Processed by: cddbd v1.5.2PL0 Copyright (c) Steve Scherf et al.
# Submitted via: ExactAudioCopy v0.99pb5
#
DISCID=e90cac10
DTITLE=Ray Charles - The very best of Ray Charles
DYEAR=1993
DGENRE=Blues
TTITLE0=Yesterday
TTITLE1=Your cheatin' heart
TTITLE2=Georgia on my mind
TTITLE3=I can't stop loving you
TTITLE4=Busted
TTITLE5=Together again
TTITLE6=Take these chains from my heart
TTITLE7=Crying time
TTITLE8=Half as much
TTITLE9=Here we go again
TTITLE10=Born to lose
TTITLE11=Eleanor Rigby
TTITLE12=You don't know me
TTITLE13=Hit the road Jack
TTITLE14=I gotta woman (live)
TTITLE15=What'd I say (live)
EXTD=(c) 1991 Arcade Benelux\nCD-ID =01 5520 61 YEAR: 1991
EXTT0=Lennon/McCartney
EXTT1=
EXTT2=
EXTT3=
EXTT4=
EXTT5=
EXTT6=
EXTT7=
EXTT8=
EXTT9=
EXTT10=
EXTT11=
EXTT12=
EXTT13=
EXTT14=
EXTT15=
PLAYORDER=
